<?xml version="1.0" standalone="no"?>
<!DOCTYPE svg PUBLIC "-//W3C//DTD SVG 20010904//EN"
 "http://www.w3.org/TR/2001/REC-SVG-20010904/DTD/svg10.dtd">
<svg version="1.0" xmlns="http://www.w3.org/2000/svg"
 width="600.000000pt" height="600.000000pt" viewBox="0 0 600.000000 600.000000"
 preserveAspectRatio="xMidYMid meet">
<metadata>
Created by potrace 1.14, written by Peter Selinger 2001-2017
</metadata>
<g transform="translate(0.000000,600.000000) scale(0.100000,-0.100000)"
fill="#000000" stroke="none">
<path d="M2790 5893 c-506 -48 -911 -180 -1316 -428 -304 -186 -630 -493 -840
-790 -582 -822 -696 -1892 -299 -2820 227 -533 639 -1012 1135 -1320 480 -298
1051 -450 1620 -432 887 29 1689 444 2225 1152 525 692 708 1590 499 2442
-122 501 -365 938 -729 1312 -256 263 -489 435 -805 592 -316 157 -667 255
-1030 288 -106 10 -377 12 -460 4z m-324 -1612 c169 -42 336 -132 472 -256
l62 -57 68 63 c434 410 1131 360 1508 -107 75 -93 165 -266 194 -374 118 -440
-60 -863 -576 -1372 -271 -267 -570 -505 -1022 -813 l-174 -118 -176 119
c-804 544 -1311 1031 -1517 1459 -91 188 -121 321 -112 505 7 142 34 256 91
376 150 317 418 524 761 589 107 20 311 13 421 -14z"/>
</g>
</svg>
